<svg xmlns="http://www.w3.org/2000/svg" display="block" preserveAspectRatio="xMidYMid" style="margin:auto;background:0 0" viewBox="0 0 100 100">
  <defs/>
  <rect width="5" height="6" x="47.5" y="27" fill="#f06018" rx="2.5" ry="2.64">
    <animate attributeName="opacity" begin="-1.3681592039800994s" dur="1.4925373134328357s" keyTimes="0;1" repeatCount="indefinite" values="1;0"/>
  </rect>
  <rect width="5" height="6" x="47.5" y="27" fill="#f06018" rx="2.5" ry="2.64" transform="rotate(30 50 50)">
    <animate attributeName="opacity" begin="-1.243781094527363s" dur="1.4925373134328357s" keyTimes="0;1" repeatCount="indefinite" values="1;0"/>
  </rect>
  <rect width="5" height="6" x="47.5" y="27" fill="#f06018" rx="2.5" ry="2.64" transform="rotate(60 50 50)">
    <animate attributeName="opacity" begin="-1.1194029850746268s" dur="1.4925373134328357s" keyTimes="0;1" repeatCount="indefinite" values="1;0"/>
  </rect>
  <rect width="5" height="6" x="47.5" y="27" fill="#f06018" rx="2.5" ry="2.64" transform="rotate(90 50 50)">
    <animate attributeName="opacity" begin="-0.9950248756218905s" dur="1.4925373134328357s" keyTimes="0;1" repeatCount="indefinite" values="1;0"/>
  </rect>
  <rect width="5" height="6" x="47.5" y="27" fill="#f06018" rx="2.5" ry="2.64" transform="rotate(120 50 50)">
    <animate attributeName="opacity" begin="-0.8706467661691542s" dur="1.4925373134328357s" keyTimes="0;1" repeatCount="indefinite" values="1;0"/>
  </rect>
  <rect width="5" height="6" x="47.5" y="27" fill="#f06018" rx="2.5" ry="2.64" transform="rotate(150 50 50)">
    <animate attributeName="opacity" begin="-0.7462686567164178s" dur="1.4925373134328357s" keyTimes="0;1" repeatCount="indefinite" values="1;0"/>
  </rect>
  <rect width="5" height="6" x="47.5" y="27" fill="#f06018" rx="2.5" ry="2.64" transform="rotate(180 50 50)">
    <animate attributeName="opacity" begin="-0.6218905472636815s" dur="1.4925373134328357s" keyTimes="0;1" repeatCount="indefinite" values="1;0"/>
  </rect>
  <rect width="5" height="6" x="47.5" y="27" fill="#f06018" rx="2.5" ry="2.64" transform="rotate(210 50 50)">
    <animate attributeName="opacity" begin="-0.49751243781094523s" dur="1.4925373134328357s" keyTimes="0;1" repeatCount="indefinite" values="1;0"/>
  </rect>
  <rect width="5" height="6" x="47.5" y="27" fill="#f06018" rx="2.5" ry="2.64" transform="rotate(240 50 50)">
    <animate attributeName="opacity" begin="-0.3731343283582089s" dur="1.4925373134328357s" keyTimes="0;1" repeatCount="indefinite" values="1;0"/>
  </rect>
  <rect width="5" height="6" x="47.5" y="27" fill="#f06018" rx="2.5" ry="2.64" transform="rotate(270 50 50)">
    <animate attributeName="opacity" begin="-0.24875621890547261s" dur="1.4925373134328357s" keyTimes="0;1" repeatCount="indefinite" values="1;0"/>
  </rect>
  <rect width="5" height="6" x="47.5" y="27" fill="#f06018" rx="2.5" ry="2.64" transform="rotate(300 50 50)">
    <animate attributeName="opacity" begin="-0.12437810945273631s" dur="1.4925373134328357s" keyTimes="0;1" repeatCount="indefinite" values="1;0"/>
  </rect>
  <rect width="5" height="6" x="47.5" y="27" fill="#f06018" rx="2.5" ry="2.64" transform="rotate(330 50 50)">
    <animate attributeName="opacity" begin="0s" dur="1.4925373134328357s" keyTimes="0;1" repeatCount="indefinite" values="1;0"/>
  </rect>
</svg>