<svg xmlns="http://www.w3.org/2000/svg" width="33" height="32" viewBox="0 0 33 32">
    <g fill="none" fill-rule="nonzero">
        <path fill="#55872D" d="M16.5 14.5c2.205 0 4-1.795 4-4s-1.795-4-4-4-4 1.795-4 4 1.794 4 4 4z"/>
        <path fill="#F06018" stroke="#F06018" stroke-width="1.001" d="M26.108 19.5h-3.58l1.523-2.2c2.878-3.836 2.461-10.14-.89-13.492A9.524 9.524 0 0 0 16.38 1 9.526 9.526 0 0 0 9.6 3.808c-3.352 3.352-3.769 9.656-.903 13.477l1.534 2.215H6.476L1 31h30.584l-5.476-11.5zM9.51 16.7c-2.6-3.467-2.227-9.16.798-12.185A8.533 8.533 0 0 1 16.381 2c2.294 0 4.45.893 6.073 2.515 3.025 3.025 3.398 8.718.787 12.2l-6.86 9.906-4.932-7.121-1.939-2.8z"/>
    </g>
</svg>
